<?xml version="1.0" standalone="no"?>
<!DOCTYPE svg PUBLIC "-//W3C//DTD SVG 20010904//EN"
 "http://www.w3.org/TR/2001/REC-SVG-20010904/DTD/svg10.dtd">
<svg version="1.0" xmlns="http://www.w3.org/2000/svg"
 width="399.000000pt" height="399.000000pt" viewBox="0 0 399.000000 399.000000"
 preserveAspectRatio="xMidYMid meet">
<metadata>
Created by potrace 1.14, written by Peter Selinger 2001-2017
</metadata>
<g transform="translate(0.000000,399.000000) scale(0.100000,-0.100000)"
fill="#000000" stroke="none">
<path d="M1265 2507 c-18 -15 -28 -36 -32 -64 -5 -37 -2 -45 25 -73 53 -52
134 -38 162 29 38 93 -79 174 -155 108z"/>
<path d="M1720 2030 l0 -490 65 0 65 0 2 180 3 179 155 -179 155 -180 89 0 88
0 -108 118 c-60 64 -137 148 -172 186 l-64 69 163 163 164 164 -87 0 -86 0
-151 -157 -150 -158 -1 298 0 297 -65 0 -65 0 0 -490z"/>
<path d="M2897 2438 c-103 -243 -437 -1039 -437 -1043 0 -3 27 -5 61 -3 l61 3
229 545 c126 300 232 553 235 563 5 15 -2 17 -54 17 l-60 0 -35 -82z"/>
<path d="M368 2120 c-126 -105 -228 -195 -228 -200 0 -5 96 -89 213 -186 116
-98 220 -184 230 -193 16 -14 21 -12 58 26 l41 40 -184 153 c-101 84 -184 155
-186 159 -1 4 81 76 184 160 l186 153 -38 39 c-21 21 -41 39 -44 39 -3 0 -107
-86 -232 -190z"/>
<path d="M3336 2271 l-37 -38 183 -153 c101 -84 184 -156 186 -160 1 -4 -81
-76 -183 -160 l-186 -153 39 -40 c36 -36 42 -38 59 -26 61 44 443 371 443 379
0 9 -450 390 -460 390 -3 0 -23 -17 -44 -39z"/>
<path d="M940 2190 l0 -50 170 0 170 0 0 -302 c-1 -167 -5 -323 -9 -347 -10
-48 -33 -84 -74 -115 -38 -28 -150 -26 -227 3 -30 12 -56 21 -57 21 -2 0 -3
-27 -3 -60 0 -57 2 -61 28 -71 15 -6 70 -14 123 -16 120 -7 192 12 250 64 91
82 99 131 99 575 l0 348 -235 0 -235 0 0 -50z"/>
</g>
</svg>
